<mxfile host="app.diagrams.net" modified="2021-08-26T01:27:48.745Z" agent="5.0 (X11; Linux x86_64) AppleWebKit/537.36 (KHTML, like Gecko) Chrome/92.0.4515.159 Safari/537.36" etag="MxC8CQ_yTXBfkovarU0H" version="14.9.9" type="github">
  <diagram id="b6Vq1hrEZ4uJ4dG0rjz3" name="Page-1">
    <mxGraphModel dx="1058" dy="533" grid="1" gridSize="10" guides="1" tooltips="1" connect="1" arrows="1" fold="1" page="1" pageScale="1" pageWidth="1100" pageHeight="850" math="0" shadow="0">
      <root>
        <mxCell id="0" />
        <mxCell id="1" parent="0" />
        <mxCell id="04IrrymB_MpXUd42GjIW-3" value="" style="rounded=1;whiteSpace=wrap;html=1;" vertex="1" parent="1">
          <mxGeometry x="70" y="150" width="120" height="60" as="geometry" />
        </mxCell>
        <mxCell id="04IrrymB_MpXUd42GjIW-4" value="&lt;font style=&quot;font-size: 14px&quot;&gt;&lt;b&gt;Production&lt;/b&gt;&lt;/font&gt;" style="text;html=1;strokeColor=none;fillColor=none;align=center;verticalAlign=middle;whiteSpace=wrap;rounded=0;" vertex="1" parent="1">
          <mxGeometry x="70" y="150" width="120" height="20" as="geometry" />
        </mxCell>
        <mxCell id="04IrrymB_MpXUd42GjIW-5" value="1231231" style="text;html=1;strokeColor=none;fillColor=none;align=center;verticalAlign=middle;whiteSpace=wrap;rounded=0;" vertex="1" parent="1">
          <mxGeometry x="110" y="190" width="40" height="10" as="geometry" />
        </mxCell>
        <mxCell id="04IrrymB_MpXUd42GjIW-6" value="" style="rounded=1;whiteSpace=wrap;html=1;" vertex="1" parent="1">
          <mxGeometry x="260" y="60" width="150" height="60" as="geometry" />
        </mxCell>
        <mxCell id="04IrrymB_MpXUd42GjIW-7" value="&lt;font style=&quot;font-size: 14px&quot;&gt;&lt;b&gt;Total&amp;nbsp;&lt;/b&gt;&lt;/font&gt;&lt;span style=&quot;font-size: 14px&quot;&gt;&lt;b&gt;Procurement&lt;/b&gt;&lt;/span&gt;" style="text;html=1;strokeColor=none;fillColor=none;align=center;verticalAlign=middle;whiteSpace=wrap;rounded=0;" vertex="1" parent="1">
          <mxGeometry x="275" y="65" width="120" height="10" as="geometry" />
        </mxCell>
        <mxCell id="04IrrymB_MpXUd42GjIW-8" value="1231231" style="text;html=1;strokeColor=none;fillColor=none;align=center;verticalAlign=middle;whiteSpace=wrap;rounded=0;" vertex="1" parent="1">
          <mxGeometry x="315" y="90" width="40" height="20" as="geometry" />
        </mxCell>
        <mxCell id="04IrrymB_MpXUd42GjIW-9" value="" style="rounded=1;whiteSpace=wrap;html=1;" vertex="1" parent="1">
          <mxGeometry x="260" y="210" width="160" height="60" as="geometry" />
        </mxCell>
        <mxCell id="04IrrymB_MpXUd42GjIW-10" value="&lt;font style=&quot;font-size: 14px&quot;&gt;&lt;b&gt;Domestic Retention&lt;/b&gt;&lt;/font&gt;" style="text;html=1;strokeColor=none;fillColor=none;align=center;verticalAlign=middle;whiteSpace=wrap;rounded=0;" vertex="1" parent="1">
          <mxGeometry x="275" y="210" width="140" height="20" as="geometry" />
        </mxCell>
        <mxCell id="04IrrymB_MpXUd42GjIW-11" value="1231231" style="text;html=1;strokeColor=none;fillColor=none;align=center;verticalAlign=middle;whiteSpace=wrap;rounded=0;" vertex="1" parent="1">
          <mxGeometry x="315" y="250" width="40" height="10" as="geometry" />
        </mxCell>
        <mxCell id="04IrrymB_MpXUd42GjIW-13" value="" style="rounded=1;whiteSpace=wrap;html=1;" vertex="1" parent="1">
          <mxGeometry x="490" y="15" width="150" height="60" as="geometry" />
        </mxCell>
        <mxCell id="04IrrymB_MpXUd42GjIW-14" value="&lt;font style=&quot;font-size: 14px&quot;&gt;&lt;b&gt;Govt.&amp;nbsp;&lt;/b&gt;&lt;/font&gt;&lt;span style=&quot;font-size: 14px&quot;&gt;&lt;b&gt;Procurement&lt;/b&gt;&lt;/span&gt;" style="text;html=1;strokeColor=none;fillColor=none;align=center;verticalAlign=middle;whiteSpace=wrap;rounded=0;" vertex="1" parent="1">
          <mxGeometry x="505" y="20" width="120" height="10" as="geometry" />
        </mxCell>
        <mxCell id="04IrrymB_MpXUd42GjIW-15" value="1231231" style="text;html=1;strokeColor=none;fillColor=none;align=center;verticalAlign=middle;whiteSpace=wrap;rounded=0;" vertex="1" parent="1">
          <mxGeometry x="545" y="45" width="40" height="20" as="geometry" />
        </mxCell>
        <mxCell id="04IrrymB_MpXUd42GjIW-16" value="" style="rounded=1;whiteSpace=wrap;html=1;" vertex="1" parent="1">
          <mxGeometry x="490" y="120" width="150" height="60" as="geometry" />
        </mxCell>
        <mxCell id="04IrrymB_MpXUd42GjIW-17" value="&lt;font style=&quot;font-size: 14px&quot;&gt;&lt;b&gt;Pvt.&amp;nbsp;&lt;/b&gt;&lt;/font&gt;&lt;span style=&quot;font-size: 14px&quot;&gt;&lt;b&gt;Procurement&lt;/b&gt;&lt;/span&gt;" style="text;html=1;strokeColor=none;fillColor=none;align=center;verticalAlign=middle;whiteSpace=wrap;rounded=0;" vertex="1" parent="1">
          <mxGeometry x="505" y="125" width="120" height="10" as="geometry" />
        </mxCell>
        <mxCell id="04IrrymB_MpXUd42GjIW-18" value="1231231" style="text;html=1;strokeColor=none;fillColor=none;align=center;verticalAlign=middle;whiteSpace=wrap;rounded=0;" vertex="1" parent="1">
          <mxGeometry x="545" y="150" width="40" height="20" as="geometry" />
        </mxCell>
        <mxCell id="04IrrymB_MpXUd42GjIW-20" value="" style="rounded=1;whiteSpace=wrap;html=1;" vertex="1" parent="1">
          <mxGeometry x="700" y="60" width="150" height="60" as="geometry" />
        </mxCell>
        <mxCell id="04IrrymB_MpXUd42GjIW-21" value="&lt;span style=&quot;font-size: 14px&quot;&gt;&lt;b&gt;Carter Urban Population&lt;/b&gt;&lt;/span&gt;" style="text;html=1;strokeColor=none;fillColor=none;align=center;verticalAlign=middle;whiteSpace=wrap;rounded=0;" vertex="1" parent="1">
          <mxGeometry x="715" y="75" width="120" height="10" as="geometry" />
        </mxCell>
        <mxCell id="04IrrymB_MpXUd42GjIW-22" value="1231231" style="text;html=1;strokeColor=none;fillColor=none;align=center;verticalAlign=middle;whiteSpace=wrap;rounded=0;" vertex="1" parent="1">
          <mxGeometry x="755" y="100" width="40" height="20" as="geometry" />
        </mxCell>
        <mxCell id="04IrrymB_MpXUd42GjIW-23" value="" style="rounded=1;whiteSpace=wrap;html=1;" vertex="1" parent="1">
          <mxGeometry x="880" y="60" width="150" height="60" as="geometry" />
        </mxCell>
        <mxCell id="04IrrymB_MpXUd42GjIW-24" value="&lt;span style=&quot;font-size: 14px&quot;&gt;&lt;b&gt;Urban Demand&lt;/b&gt;&lt;/span&gt;" style="text;html=1;strokeColor=none;fillColor=none;align=center;verticalAlign=middle;whiteSpace=wrap;rounded=0;" vertex="1" parent="1">
          <mxGeometry x="895" y="65" width="120" height="10" as="geometry" />
        </mxCell>
        <mxCell id="04IrrymB_MpXUd42GjIW-25" value="40,000 MT/Day" style="text;html=1;strokeColor=none;fillColor=none;align=center;verticalAlign=middle;whiteSpace=wrap;rounded=0;" vertex="1" parent="1">
          <mxGeometry x="900" y="90" width="110" height="20" as="geometry" />
        </mxCell>
        <mxCell id="04IrrymB_MpXUd42GjIW-26" value="" style="rounded=1;whiteSpace=wrap;html=1;" vertex="1" parent="1">
          <mxGeometry x="395" y="345" width="150" height="60" as="geometry" />
        </mxCell>
        <mxCell id="04IrrymB_MpXUd42GjIW-27" value="&lt;span style=&quot;font-size: 14px&quot;&gt;&lt;b&gt;Rural Demand&lt;/b&gt;&lt;/span&gt;" style="text;html=1;strokeColor=none;fillColor=none;align=center;verticalAlign=middle;whiteSpace=wrap;rounded=0;" vertex="1" parent="1">
          <mxGeometry x="410" y="350" width="120" height="10" as="geometry" />
        </mxCell>
        <mxCell id="04IrrymB_MpXUd42GjIW-28" value="40,000 MT/Day" style="text;html=1;strokeColor=none;fillColor=none;align=center;verticalAlign=middle;whiteSpace=wrap;rounded=0;" vertex="1" parent="1">
          <mxGeometry x="415" y="375" width="110" height="20" as="geometry" />
        </mxCell>
        <mxCell id="04IrrymB_MpXUd42GjIW-29" value="" style="rounded=1;whiteSpace=wrap;html=1;" vertex="1" parent="1">
          <mxGeometry x="125" y="345" width="150" height="60" as="geometry" />
        </mxCell>
        <mxCell id="04IrrymB_MpXUd42GjIW-30" value="&lt;span style=&quot;font-size: 14px&quot;&gt;&lt;b&gt;Carter Rural Population&lt;/b&gt;&lt;/span&gt;" style="text;html=1;strokeColor=none;fillColor=none;align=center;verticalAlign=middle;whiteSpace=wrap;rounded=0;" vertex="1" parent="1">
          <mxGeometry x="140" y="360" width="120" height="10" as="geometry" />
        </mxCell>
        <mxCell id="04IrrymB_MpXUd42GjIW-31" value="40,000 MT/Day" style="text;html=1;strokeColor=none;fillColor=none;align=center;verticalAlign=middle;whiteSpace=wrap;rounded=0;" vertex="1" parent="1">
          <mxGeometry x="145" y="385" width="110" height="20" as="geometry" />
        </mxCell>
      </root>
    </mxGraphModel>
  </diagram>
</mxfile>
